<svg width="858" height="899" viewBox="0 0 858 899" fill="none" xmlns="http://www.w3.org/2000/svg">
<rect x="61.999" width="796" height="900" fill="#005DCC"/>
<path d="M81.0879 227.972H177.874V434.803H81.0879V227.972ZM165.115 315.806H292.347V477.283H165.115V315.806ZM705.97 303.307V258.027H594.009V441.936H700.873V524H873.088V303.307H705.97ZM378.152 420.611H475.13V209H378.152V420.611Z" fill="#4A9FF4"/>
<path d="M845.859 294.736V423.349H796.936V281.132L733.334 264.774V343.322H665.966V196H567.206V307.34H524.762V238.864H419.396V326.081H353.932V214.092L239.949 234.907V387.335H205.909V294.736H110.202V339.77H62.0879V577H927.088V366.063V294.736H845.859Z" fill="#4391EF"/>
<path d="M342.335 241.849H331.13V249.367H342.335V241.849Z" fill="#53A7F4"/>
<path d="M342.335 256.331H331.13V263.849H342.335V256.331Z" fill="#53A7F4"/>
<path d="M342.335 285.295H331.13V292.812H342.335V285.295Z" fill="#53A7F4"/>
<path d="M322.944 227.367H311.739V234.884H322.944V227.367Z" fill="#53A7F4"/>
<path d="M322.944 241.849H311.739V249.367H322.944V241.849Z" fill="#53A7F4"/>
<path d="M322.944 270.813H311.739V278.331H322.944V270.813Z" fill="#53A7F4"/>
<path d="M784.636 290.941H773.431V298.459H784.636V290.941Z" fill="#53A7F4"/>
<path d="M784.636 319.299H773.431V326.817H784.636V319.299Z" fill="#53A7F4"/>
<path d="M784.636 333.473H773.431V340.99H784.636V333.473Z" fill="#53A7F4"/>
<path d="M784.636 347.647H773.431V355.164H784.636V347.647Z" fill="#53A7F4"/>
<path d="M784.636 376.004H773.431V383.522H784.636V376.004Z" fill="#53A7F4"/>
<path d="M762.481 290.941H751.276V298.459H762.481V290.941Z" fill="#53A7F4"/>
<path d="M762.481 305.115H751.276V312.632H762.481V305.115Z" fill="#53A7F4"/>
<path d="M762.481 347.647H751.276V355.164H762.481V347.647Z" fill="#53A7F4"/>
<path d="M322.944 285.295H311.739V292.812H322.944V285.295Z" fill="#53A7F4"/>
<path d="M322.944 299.777H311.739V307.295H322.944V299.777Z" fill="#53A7F4"/>
<path d="M303.543 241.849H292.338V249.367H303.543V241.849Z" fill="#53A7F4"/>
<path d="M303.543 270.813H292.338V278.331H303.543V270.813Z" fill="#53A7F4"/>
<path d="M303.543 285.295H292.338V292.812H303.543V285.295Z" fill="#53A7F4"/>
<path d="M632.241 209.025H620.558V219.127H632.241V209.025Z" fill="#53A7F4"/>
<path d="M632.241 228.484H620.558V238.585H632.241V228.484Z" fill="#53A7F4"/>
<path d="M632.241 247.931H620.558V258.032H632.241V247.931Z" fill="#53A7F4"/>
<path d="M632.241 267.389H620.558V277.491H632.241V267.389Z" fill="#53A7F4"/>
<path d="M632.241 286.837H620.558V296.938H632.241V286.837Z" fill="#53A7F4"/>
<path d="M612 209.025H600.316V219.127H612V209.025Z" fill="#53A7F4"/>
<path d="M612 228.484H600.316V238.585H612V228.484Z" fill="#53A7F4"/>
<path d="M612 286.837H600.316V296.938H612V286.837Z" fill="#53A7F4"/>
<path d="M591.759 209.025H580.075V219.127H591.759V209.025Z" fill="#53A7F4"/>
<path d="M591.759 247.931H580.075V258.032H591.759V247.931Z" fill="#53A7F4"/>
<path d="M591.759 267.389H580.075V277.491H591.759V267.389Z" fill="#53A7F4"/>
<path d="M591.759 286.837H580.075V296.938H591.759V286.837Z" fill="#53A7F4"/>
<path d="M433.974 249.25H427.234V351.198H433.974V249.25Z" fill="#53A7F4"/>
<path d="M449.888 249.25H443.138V351.198H449.888V249.25Z" fill="#53A7F4"/>
<path d="M187.596 309.565V305.036H142.861V309.565H187.596Z" fill="#53A7F4"/>
<path d="M187.6 320.245V315.715H142.865V320.245H187.6Z" fill="#53A7F4"/>
<path d="M187.595 348.704V344.174H142.86V348.704H187.595Z" fill="#53A7F4"/>
<path d="M187.603 337.228V332.699H142.867V337.228H187.603Z" fill="#53A7F4"/>
<path d="M187.599 359.383V354.854H142.864V359.383H187.599Z" fill="#53A7F4"/>
<path d="M465.771 249.25H459.031V351.198H465.771V249.25Z" fill="#53A7F4"/>
<path d="M481.675 249.25H474.935V351.198H481.675V249.25Z" fill="#53A7F4"/>
<path d="M497.579 249.25H490.839V351.198H497.579V249.25Z" fill="#53A7F4"/>
<path d="M513.483 249.25H506.743V351.198H513.483V249.25Z" fill="#53A7F4"/>
<path d="M920.09 482.574C909.95 472.03 895.846 475.175 885.887 486.124C875.918 497.073 869.466 514.397 864.8 532.137C866.49 523.512 863.376 512.606 857.785 510.815C852.195 509.034 846.402 519.802 849.304 527.584C844.712 511.444 839.972 495.047 832.511 481.859C826.973 472.062 819.671 464.087 811.487 461.177C807.746 459.844 804.547 458.736 801.55 463.192C798.85 467.2 797.553 473.49 796.979 479.119C795.045 497.904 797.851 517.808 804.643 533.512C802.028 528.437 798.34 524.77 794.322 523.224C793.174 522.787 791.973 522.52 790.825 522.979C788.466 523.928 786.967 527.819 786.702 531.646C786.436 535.473 787.159 539.29 787.871 542.968C785.851 537.552 783.13 532.819 779.91 529.141C778.188 527.179 775.308 525.911 774.351 528.896C773.969 530.1 774.107 531.529 774.256 532.862C774.723 537.019 775.191 541.177 775.659 545.324C765.445 532.105 752.435 524.429 739.256 523.864C737.215 523.778 735.089 523.885 733.283 525.367C730.413 527.723 728.967 533.139 728.936 538.256C728.904 543.373 730.02 548.32 731.125 553.128C716.649 536.572 697.347 531.092 680.14 538.65C674.358 541.188 668.629 545.335 664.771 552.606C663.442 555.111 662.326 558.075 662.124 561.337C661.71 567.926 665.079 573.704 668.778 576.774C674.751 581.721 681.766 582.03 688.505 581.998C734.537 581.785 780.356 570.9 826.431 573.405C833.637 573.8 841.938 576.849 849.049 575.09C855.575 573.48 861.771 572.393 868.467 571.955C884.92 570.879 901.373 569.717 917.815 568.469" fill="#3A84EF"/>
<path d="M62.0874 482.574C72.227 472.03 86.3311 475.175 96.2901 486.124C106.26 497.073 112.711 514.397 117.377 532.137C115.687 523.512 118.801 512.606 124.392 510.815C129.983 509.034 135.775 519.802 132.873 527.584C137.465 511.444 142.205 495.047 149.667 481.859C155.204 472.062 162.506 464.087 170.69 461.177C174.431 459.844 177.63 458.736 180.628 463.192C183.327 467.2 184.624 473.49 185.198 479.119C187.132 497.904 184.326 517.808 177.535 533.512C180.149 528.437 183.837 524.77 187.855 523.224C189.003 522.787 190.204 522.52 191.352 522.979C193.711 523.928 195.21 527.819 195.476 531.646C195.741 535.473 195.019 539.29 194.306 542.968C196.326 537.552 199.047 532.819 202.267 529.141C203.989 527.179 206.869 525.911 207.826 528.896C208.209 530.1 208.07 531.529 207.922 532.862C207.454 537.019 206.986 541.177 206.519 545.324C216.733 532.105 229.742 524.429 242.921 523.864C244.962 523.778 247.088 523.885 248.895 525.367C251.764 527.723 253.21 533.139 253.242 538.256C253.274 543.373 252.158 548.32 251.052 553.128C265.528 536.572 284.83 531.092 302.037 538.65C307.819 541.188 313.548 545.335 317.406 552.606C318.735 555.111 319.851 558.075 320.053 561.337C320.467 567.926 317.098 573.704 313.399 576.774C307.426 581.721 300.411 582.03 293.673 581.998C247.64 581.785 201.821 570.9 155.746 573.405C148.54 573.8 140.239 576.849 133.129 575.09C126.603 573.48 120.406 572.393 113.71 571.955C97.2572 570.879 80.8042 569.717 64.3619 568.469" fill="#3A84EF"/>
<path d="M925.088 575H60.0879V900H925.088V575Z" fill="#2C2AA1"/>
<path d="M974.741 608.272C979.203 590.406 979.394 587.923 974.178 570.215C971.66 561.668 967.857 553.131 960.898 546.75C933.085 521.245 890.675 529.232 873.391 552.772C860.419 570.427 855.989 592.762 861.407 613.227C858.103 608.843 853.269 604.891 847.32 604.289C838.609 603.401 830.853 610.279 828.782 617.76C826.71 625.24 828.835 633.069 830.949 640.539C825.531 629.931 812.857 622.144 799.62 622.504C786.383 622.874 773.794 632.171 772.391 643.73C771.255 653.101 774.92 662.219 782.229 670.133C767.876 660.307 749.274 655.69 731.086 656.429C712.899 657.169 697.346 661.786 682.462 670.988C672.826 676.947 659.238 694.634 661.299 704.808C663.297 714.666 677.107 713.282 687.965 716.346C701.287 720.107 714.28 720.815 728.101 721.375C740.287 721.861 752.674 724.925 764.997 726.119C794.999 729.014 825.35 730.208 855.426 727.418C884.588 724.714 915.067 717.392 934.753 698.332C954.343 679.356 959.549 649.932 947.427 626.635" fill="#33E5C5"/>
<path d="M3.43655 608.272C-1.25357 590.418 -1.21666 587.923 3.99957 570.215C6.51739 561.668 10.3207 553.131 17.2792 546.75C45.092 521.245 87.5018 529.232 104.787 552.772C117.758 570.427 122.188 592.762 116.77 613.227C120.074 608.843 124.908 604.891 130.857 604.289C139.569 603.401 147.324 610.279 149.395 617.76C151.467 625.24 149.342 633.069 147.228 640.539C152.646 629.931 165.32 622.144 178.557 622.504C191.795 622.874 204.384 632.171 205.786 643.73C206.923 653.101 203.257 662.219 195.948 670.133C210.301 660.307 228.903 655.69 247.091 656.429C265.279 657.169 280.832 661.786 295.715 670.988C305.351 676.947 318.939 694.634 316.878 704.808C314.881 714.666 301.07 713.282 290.212 716.346C276.89 720.107 263.898 720.815 250.076 721.375C237.891 721.861 225.504 724.925 213.18 726.119C183.179 729.014 152.827 730.208 122.751 727.419C93.5892 724.714 63.1098 717.392 43.4241 698.332C23.8341 679.356 30.75 626.635 30.75 626.635" fill="#33E5C5"/>
<path d="M532.459 476.616H544.465C546.704 476.616 548.51 478.436 548.51 480.671V488.195C548.51 490.44 546.695 492.25 544.465 492.25H534.748V489.258C531.823 489.258 529.008 488.093 526.939 486.019L525.481 484.557L532.459 476.616Z" fill="#BE653B"/>
<path d="M532.459 476.616L525.481 484.548L495.508 477.568L499.654 466.448L532.459 476.616Z" fill="#BE653B"/>
<path d="M499.654 466.448L501.121 466.899L501.587 478.98L495.508 477.568L499.654 466.448Z" fill="#9A4C28"/>
<path d="M442.261 423.439C446.212 420.328 451.91 420.889 455.191 424.698L486.283 460.863L491.904 462.759L486.681 476.761L483.731 476.123C479.067 475.111 474.811 472.714 471.521 469.245L441.252 437.356C437.428 433.335 437.894 426.874 442.261 423.439Z" fill="#F48116"/>
<path d="M486.512 477.211L486.682 476.769L491.905 462.767L492.422 461.382C492.719 460.591 493.6 460.183 494.389 460.48L499.527 462.41C500.316 462.708 500.723 463.592 500.426 464.383L500.01 465.505L495.127 478.597L494.525 480.212C494.228 481.003 493.346 481.411 492.558 481.114L487.419 479.184C486.622 478.886 486.215 478.002 486.512 477.211Z" fill="#E4E4E5"/>
<path d="M453.224 426.211C450.332 422.844 445.499 421.943 441.599 424.026C441.811 423.822 442.032 423.626 442.269 423.439C446.22 420.328 451.918 420.889 455.199 424.698L486.291 460.863L491.913 462.759L491.073 465.003L484.765 462.869L453.224 426.211Z" fill="#FF9C1A"/>
<path d="M453.08 498.695L517.884 515.987C529.085 518.979 534.316 531.893 528.347 541.865L490.573 605.023L469.537 595.663L499.765 538.031L438.208 525.134C426.303 522.635 419.283 510.223 423.276 498.703H453.08V498.695Z" fill="#0044CC"/>
<path d="M472.268 599.973L473.845 597.576L485.8 602.889L482.985 608.024L469.665 604.275C470.479 602.813 471.343 601.376 472.268 599.973Z" fill="#C15F32"/>
<path d="M475.557 610.311L476.668 613.15L475.184 612.105C474.599 611.688 473.896 611.467 473.175 611.467H466.197C467.214 609.002 468.367 606.604 469.673 604.275L482.993 608.024L482.179 609.495H476.109C475.685 609.495 475.396 609.92 475.557 610.311Z" fill="white"/>
<path d="M490.87 622.553H462.636L463.153 620.555C463.95 617.452 464.976 614.426 466.197 611.476H473.175C473.896 611.476 474.599 611.697 475.184 612.113L476.668 613.159L475.558 610.319C475.405 609.928 475.693 609.503 476.117 609.503H482.188L486.673 613.729C488.708 615.641 491.388 616.713 494.177 616.713H497.238C500.231 616.713 502.843 618.387 504.191 620.861L498.366 621.898C495.882 622.332 493.38 622.553 490.87 622.553Z" fill="#422C4F"/>
<path d="M490.87 622.553C493.38 622.553 495.881 622.332 498.357 621.89L504.182 620.853C504.75 621.898 505.098 623.097 505.149 624.364L496.254 625.172C494.847 625.299 493.439 625.367 492.023 625.367H461.923L462.644 622.553H490.87Z" fill="white"/>
<path d="M473.845 597.576L485.8 602.889L484.503 605.244L471.496 601.18L473.845 597.576Z" fill="#9A4C28"/>
<path d="M553.071 492.871H556.132L564.009 520.799C570.173 542.664 567.672 566.044 557.082 586.082L553.241 587.535L553.071 492.871Z" fill="#077AED"/>
<path d="M564.009 520.807L556.132 492.88H558.998L575.159 553.028C576.617 558.443 581.51 562.209 587.106 562.209C587.53 562.209 587.869 562.549 587.869 562.975V574.452L557.073 586.09C567.672 566.052 570.173 542.664 564.009 520.807Z" fill="#056CE5"/>
<path d="M589.98 677.991C613.74 677.991 633.002 658.679 633.002 634.855C633.002 611.031 613.74 591.718 589.98 591.718C566.22 591.718 546.958 611.031 546.958 634.855C546.958 658.679 566.22 677.991 589.98 677.991Z" fill="#121212"/>
<path d="M589.98 665.919C607.091 665.919 620.962 652.011 620.962 634.855C620.962 617.698 607.091 603.79 589.98 603.79C572.869 603.79 558.998 617.698 558.998 634.855C558.998 652.011 572.869 665.919 589.98 665.919Z" fill="#001B66"/>
<path d="M589.98 660.215C603.949 660.215 615.273 648.861 615.273 634.855C615.273 620.849 603.949 609.495 589.98 609.495C576.011 609.495 564.688 620.849 564.688 634.855C564.688 648.861 576.011 660.215 589.98 660.215Z" fill="#649FCB"/>
<path d="M589.98 609.495C594.754 609.495 599.222 610.821 603.038 613.133C601.282 612.691 599.434 612.445 597.543 612.445C585.198 612.445 575.193 622.477 575.193 634.855C575.193 647.233 585.198 657.265 597.543 657.265C599.442 657.265 601.282 657.027 603.038 656.576C599.231 658.88 594.762 660.215 589.98 660.215C576.007 660.215 564.688 648.857 564.688 634.855C564.679 620.853 576.007 609.495 589.98 609.495Z" fill="#171819" fill-opacity="0.1"/>
<path d="M589.98 646.043C596.143 646.043 601.138 641.034 601.138 634.855C601.138 628.676 596.143 623.667 589.98 623.667C583.817 623.667 578.822 628.676 578.822 634.855C578.822 641.034 583.817 646.043 589.98 646.043Z" fill="#00308D"/>
<path d="M595.315 640.211C598.266 637.253 598.266 632.456 595.315 629.498C592.365 626.54 587.582 626.54 584.631 629.498C581.681 632.456 581.681 637.253 584.631 640.211C587.582 643.169 592.365 643.169 595.315 640.211Z" fill="#8695B8"/>
<path d="M368.978 677.991C392.738 677.991 412 658.679 412 634.855C412 611.031 392.738 591.718 368.978 591.718C345.218 591.718 325.956 611.031 325.956 634.855C325.956 658.679 345.218 677.991 368.978 677.991Z" fill="#121212"/>
<path d="M368.978 665.919C386.089 665.919 399.96 652.011 399.96 634.855C399.96 617.698 386.089 603.79 368.978 603.79C351.867 603.79 337.996 617.698 337.996 634.855C337.996 652.011 351.867 665.919 368.978 665.919Z" fill="#001B66"/>
<path d="M368.978 660.215C382.947 660.215 394.271 648.861 394.271 634.855C394.271 620.849 382.947 609.495 368.978 609.495C355.009 609.495 343.686 620.849 343.686 634.855C343.686 648.861 355.009 660.215 368.978 660.215Z" fill="#649FCB"/>
<path d="M368.978 609.495C373.752 609.495 378.22 610.821 382.036 613.133C380.28 612.691 378.432 612.445 376.541 612.445C364.196 612.445 354.191 622.477 354.191 634.855C354.191 647.233 364.196 657.265 376.541 657.265C378.441 657.265 380.28 657.027 382.036 656.576C378.229 658.88 373.76 660.215 368.978 660.215C355.005 660.215 343.686 648.857 343.686 634.855C343.677 620.853 355.005 609.495 368.978 609.495Z" fill="#171819" fill-opacity="0.1"/>
<path d="M368.978 646.043C375.141 646.043 380.136 641.034 380.136 634.855C380.136 628.676 375.141 623.667 368.978 623.667C362.816 623.667 357.82 628.676 357.82 634.855C357.82 641.034 362.816 646.043 368.978 646.043Z" fill="#00308D"/>
<path d="M374.315 640.209C377.265 637.251 377.265 632.455 374.315 629.497C371.365 626.539 366.581 626.539 363.631 629.497C360.681 632.455 360.681 637.251 363.631 640.209C366.581 643.167 371.365 643.167 374.315 640.209Z" fill="#8695B8"/>
<path d="M587.903 577.725C565.739 578.422 546.788 593.98 540.896 615.403L539.937 618.889L538.895 619.399L540.896 612.139C546.788 590.707 565.747 575.157 587.903 574.46C588.471 574.443 589.047 574.435 589.624 574.435C599.162 574.435 608.311 576.926 616.358 581.584L614.891 584.033C607.209 579.901 598.586 577.699 589.624 577.699C589.047 577.691 588.479 577.699 587.903 577.725Z" fill="white"/>
<path d="M583.858 597.244L539.938 618.889L540.896 615.403C546.788 593.971 565.747 578.422 587.903 577.725C588.471 577.708 589.047 577.699 589.624 577.699C598.586 577.699 607.209 579.901 614.891 584.033L607.006 597.244H583.858Z" fill="#337AE2"/>
<path d="M536.817 622.664H557.345C566.57 622.664 575.422 618.991 581.951 612.445C588.479 605.899 597.331 602.226 606.556 602.226H630.899L623.2 594.507C614.297 585.58 602.224 580.564 589.632 580.564C573.412 580.564 558.32 588.862 549.595 602.575L536.817 622.664Z" fill="#0057D8"/>
<path d="M553.072 492.871L560.948 520.799C567.265 543.192 564.493 567.183 553.241 587.535L549.307 594.651C538.174 614.783 517.028 627.28 494.067 627.28H300.273L307.218 602.013C314.069 577.087 330.051 555.68 351.978 542.078L364.526 534.29H472.336V539.009C472.336 542.146 470.343 544.934 467.375 545.929C455.844 549.823 447.56 560.016 446.085 572.131C443.779 591.03 458.49 607.692 477.482 607.692H493.245C508.354 607.692 522.42 599.948 530.518 587.153L537.827 575.616C545.89 562.89 548.646 547.502 545.508 532.76L537.021 492.871H553.072Z" fill="#04286C"/>
<path d="M364.526 534.291H481.043V520.425H388.132C381.671 520.425 375.481 523.043 370.97 527.676L364.526 534.291Z" fill="#FEFFFD"/>
<path d="M432.273 629.193H484.587C508.235 629.193 530.043 616.313 541.498 595.578L545.432 588.462C557.006 567.523 559.804 543.311 553.309 520.28C551.223 512.867 552.189 504.773 555.971 498.074C556.488 497.156 556.166 495.983 555.25 495.464C554.326 494.945 553.165 495.269 552.647 496.187C548.366 503.779 547.272 512.935 549.637 521.326C555.852 543.379 553.182 566.562 542.1 586.609L538.165 593.725C527.38 613.244 506.853 625.367 484.596 625.367H432.281C431.221 625.367 430.365 626.226 430.365 627.288C430.356 628.343 431.213 629.193 432.273 629.193Z" fill="#FAFDFF"/>
<path d="M430.373 619.773H310.507L312.339 621.61C315.272 624.551 319.249 626.2 323.395 626.2H417.748C422.742 626.2 427.431 623.811 430.373 619.773Z" fill="#056CE5"/>
<path d="M378.025 639.522C392.345 639.522 403.953 627.883 403.953 613.525C403.953 599.166 392.345 587.527 378.025 587.527C363.705 587.527 352.096 599.166 352.096 613.525C352.096 627.883 363.705 639.522 378.025 639.522Z" fill="#FAFDFF"/>
<path d="M358.083 613.525C358.083 602.498 367.028 593.529 378.025 593.529C389.022 593.529 397.967 602.498 397.967 613.525C397.967 624.551 389.022 633.52 378.025 633.52C367.028 633.52 358.083 624.551 358.083 613.525ZM360.202 613.525C360.202 623.378 368.198 631.395 378.025 631.395C387.852 631.395 395.847 623.378 395.847 613.525C395.847 603.671 387.852 595.654 378.025 595.654C368.198 595.663 360.202 603.671 360.202 613.525Z" fill="#01328E"/>
<path d="M365.077 614.587H390.972C391.557 614.587 392.032 614.111 392.032 613.525C392.032 612.938 391.557 612.462 390.972 612.462H365.077C364.492 612.462 364.018 612.938 364.018 613.525C364.018 614.111 364.492 614.587 365.077 614.587Z" fill="#495375"/>
<path d="M367.307 610.337H388.751C389.336 610.337 389.81 609.86 389.81 609.274C389.81 608.687 389.336 608.211 388.751 608.211H367.307C366.722 608.211 366.248 608.687 366.248 609.274C366.248 609.86 366.722 610.337 367.307 610.337Z" fill="#495375"/>
<path d="M370.301 606.086H385.749C386.334 606.086 386.809 605.61 386.809 605.023C386.809 604.436 386.334 603.96 385.749 603.96H370.301C369.716 603.96 369.241 604.436 369.241 605.023C369.241 605.601 369.716 606.086 370.301 606.086Z" fill="#495375"/>
<path d="M373.862 601.827H382.188C382.773 601.827 383.248 601.35 383.248 600.764C383.248 600.177 382.773 599.701 382.188 599.701H373.862C373.277 599.701 372.802 600.177 372.802 600.764C372.802 601.35 373.277 601.827 373.862 601.827Z" fill="#495375"/>
<path d="M367.307 618.847H388.751C389.336 618.847 389.81 618.37 389.81 617.784C389.81 617.197 389.336 616.721 388.751 616.721H367.307C366.722 616.721 366.248 617.197 366.248 617.784C366.248 618.37 366.722 618.847 367.307 618.847Z" fill="#495375"/>
<path d="M370.301 623.097H385.749C386.334 623.097 386.809 622.621 386.809 622.035C386.809 621.448 386.334 620.972 385.749 620.972H370.301C369.716 620.972 369.241 621.448 369.241 622.035C369.241 622.621 369.716 623.097 370.301 623.097Z" fill="#01328E"/>
<path d="M373.862 627.348H382.188C382.773 627.348 383.248 626.872 383.248 626.285C383.248 625.699 382.773 625.223 382.188 625.223H373.862C373.277 625.223 372.802 625.699 372.802 626.285C372.802 626.872 373.277 627.348 373.862 627.348Z" fill="#01328E"/>
<path d="M350.045 557.219C362.381 549.704 376.541 545.725 390.972 545.725H395.814C420.402 545.725 441.252 565.891 441.235 590.545C441.227 601.716 437.131 611.926 430.374 619.765H396.56H362.746H310.499L315.095 603.374C320.496 584.109 332.985 567.616 350.045 557.219Z" fill="#077AED"/>
<path d="M356.955 573.967C365.985 568.467 376.354 565.551 386.928 565.551H390.472C408.481 565.551 423.743 580.318 423.734 598.375C423.726 606.553 420.733 614.035 415.781 619.773H391.023H366.265H328.008L331.374 607.769C335.325 593.657 344.465 581.576 356.955 573.967Z" fill="#0057D8"/>
<path d="M356.412 613.15H396.763C397.399 613.15 397.908 612.632 397.908 612.003C397.908 611.374 397.391 610.855 396.763 610.855H356.412C355.776 610.855 355.268 611.374 355.268 612.003C355.268 612.632 355.776 613.15 356.412 613.15Z" fill="white"/>
<path d="M357.65 608.594H398.001C398.637 608.594 399.146 608.075 399.146 607.446C399.146 606.808 398.629 606.298 398.001 606.298H357.65C357.014 606.298 356.505 606.817 356.505 607.446C356.505 608.084 357.014 608.594 357.65 608.594Z" fill="white"/>
<path d="M358.897 604.045H399.248C399.884 604.045 400.392 603.527 400.392 602.898C400.392 602.26 399.875 601.75 399.248 601.75H358.897C358.261 601.75 357.752 602.269 357.752 602.898C357.744 603.527 358.261 604.045 358.897 604.045Z" fill="white"/>
<path d="M360.134 599.489H400.485C401.121 599.489 401.63 598.97 401.63 598.341C401.63 597.712 401.113 597.193 400.485 597.193H360.134C359.498 597.193 358.99 597.712 358.99 598.341C358.99 598.97 359.507 599.489 360.134 599.489Z" fill="white"/>
<path d="M361.381 594.932H401.732C402.368 594.932 402.877 594.413 402.877 593.784C402.877 593.146 402.359 592.636 401.732 592.636H361.381C360.745 592.636 360.236 593.155 360.236 593.784C360.236 594.413 360.745 594.932 361.381 594.932Z" fill="white"/>
<path d="M472.335 534.29H364.526C366.909 536.679 370.148 538.031 373.522 538.031H462.356C466.019 538.023 469.563 536.696 472.335 534.29Z" fill="#908B91"/>
<path d="M537.013 492.871H559.007H569.139V472.229H562.161C556.175 472.229 550.265 473.547 544.839 476.081L539.675 478.495C536.36 480.042 534.621 483.749 535.554 487.303L537.013 492.871Z" fill="#056CE5"/>
<path d="M572.505 472.229H569.13V492.871H572.505V472.229Z" fill="#FCFFFD"/>
<path d="M574.235 472.229H572.514V492.871H574.235V472.229Z" fill="#FF9717"/>
<path d="M313.746 531.332C313.297 530.881 313.297 530.15 313.746 529.708C314.196 529.258 314.916 529.258 315.366 529.708L324.972 539.34H321.725L313.746 531.332Z" fill="#C7D2D7"/>
<path d="M324.973 539.34L340.54 554.949C340.989 555.4 340.989 556.122 340.54 556.573C340.319 556.794 340.023 556.913 339.726 556.913C339.429 556.913 339.141 556.802 338.912 556.573L321.725 539.34H324.973Z" fill="white"/>
<path d="M371.971 543.719H436.631C437.691 543.719 438.547 542.86 438.547 541.797C438.547 540.735 437.691 539.876 436.631 539.876H371.971C367.35 539.876 363.009 538.074 359.744 534.801C355.759 530.805 350.452 528.603 344.813 528.603H281.917C280.857 528.603 280 529.462 280 530.524C280 531.587 280.857 532.446 281.917 532.446H344.813C349.434 532.446 353.775 534.248 357.04 537.521C361.025 541.508 366.333 543.719 371.971 543.719Z" fill="white"/>
<path d="M553.071 492.871H537.012L537.377 494.614H553.563L553.071 492.871Z" fill="#077AED"/>
<path d="M254.633 528.597L367.699 528.597L367.699 444.747L254.633 444.747L254.633 528.597Z" fill="#F0BF6C"/>
<path d="M251.403 444.746L370.938 444.746L370.938 431.067L251.403 431.067L251.403 444.746Z" fill="#F0BF6C"/>
<path d="M254.633 451.394L367.699 451.394L367.699 444.745L254.633 444.745L254.633 451.394Z" fill="#EBA25D"/>
<path d="M353.598 461.441L354.106 463.6H311.169L295.789 461.441H353.598Z" fill="#CC6164"/>
<path d="M352.826 458.04L353.335 460.208H278.051L262.67 458.04H352.826Z" fill="#CC6164"/>
<path d="M353.598 507.842L354.106 510.002H311.169L295.789 507.842H353.598Z" fill="#CC6164"/>
<path d="M352.826 504.442L353.335 506.601H278.051L262.67 504.442H352.826Z" fill="#CC6164"/>
<path d="M453.08 498.695L507.125 514.89C519.08 518.469 524.464 532.395 518.046 543.124L481.018 605.023L459.982 595.663L490.209 538.031L428.653 525.134C416.748 522.635 409.728 510.223 413.721 498.703H453.08V498.695Z" fill="#0159D7"/>
<path d="M462.721 599.973L464.298 597.576L476.253 602.889L473.438 608.024L460.118 604.275C460.932 602.813 461.797 601.376 462.721 599.973Z" fill="#C15F32"/>
<path d="M466.002 610.311L467.113 613.151L465.629 612.105C465.044 611.688 464.34 611.467 463.62 611.467H456.642C457.659 609.002 458.812 606.604 460.118 604.275L473.438 608.024L472.633 609.495H466.562C466.138 609.495 465.85 609.92 466.002 610.311Z" fill="white"/>
<path d="M481.324 622.553H453.089L453.606 620.555C454.403 617.452 455.429 614.426 456.65 611.476H463.628C464.349 611.476 465.053 611.697 465.638 612.113L467.121 613.159L466.011 610.32C465.858 609.928 466.146 609.503 466.57 609.503H472.641L477.127 613.729C479.161 615.641 481.841 616.713 484.63 616.713H487.691C490.684 616.713 493.296 618.387 494.644 620.861L488.819 621.899C486.335 622.332 483.833 622.553 481.324 622.553Z" fill="#FB8F13"/>
<path d="M481.323 622.553C483.833 622.553 486.334 622.332 488.81 621.89L494.635 620.853C495.203 621.899 495.551 623.097 495.602 624.364L486.708 625.172C485.3 625.299 483.893 625.367 482.477 625.367H452.376L453.097 622.553H481.323Z" fill="white"/>
<path d="M464.298 597.576L476.253 602.889L474.956 605.244L461.94 601.18L464.298 597.576Z" fill="#9A4C28"/>
<path d="M465.078 402.815L466.714 393.505C467.265 390.394 469.961 388.116 473.116 388.116H482.425L481.594 392.536C480.992 395.733 481.052 399.023 481.764 402.203L482.171 404.005C482.341 404.77 481.764 405.501 480.984 405.501H479.102C476.694 414.224 466.12 417.947 458.778 412.285L447.229 403.393L453.36 407.686C457.862 410.849 464.119 408.247 465.078 402.815Z" fill="#BE653B"/>
<path d="M483.027 384.936L482.425 388.124H473.116C469.961 388.124 467.257 390.394 466.714 393.514L465.078 402.823C464.119 408.256 457.871 410.857 453.36 407.695L447.229 403.401V384.936H483.027Z" fill="#9A4C28"/>
<path d="M447.221 403.401L458.778 412.294L457.235 416.715L447.221 403.401Z" fill="#422C4F"/>
<path d="M439.141 415.686L447.221 403.401L457.235 416.715L454.615 424.255L439.141 415.686Z" fill="#C15F32"/>
<path d="M475.482 395.469C475.304 396.532 475.626 397.476 476.202 397.569C476.779 397.663 477.381 396.881 477.559 395.809C477.737 394.747 477.415 393.803 476.838 393.709C476.262 393.616 475.66 394.398 475.482 395.469Z" fill="#422C4F"/>
<path d="M478.22 391.72C477.262 391.176 476.185 391.253 475.278 391.856C474.379 392.451 473.548 391.006 474.438 390.411C475.837 389.484 477.618 389.45 479.068 390.275C479.992 390.802 479.153 392.247 478.22 391.72Z" fill="#422C4F"/>
<path d="M475.956 401.973L474.091 402.619C471.36 403.563 468.401 403.656 465.62 402.874L460.965 401.556L462.059 399.372L465.62 400.366C468.41 401.14 471.36 401.055 474.091 400.111L475.956 399.465C477.609 398.895 479.297 398.453 481.018 398.156L481.688 398.037L482.298 400.468L481.018 400.664C479.297 400.961 477.601 401.403 475.956 401.973Z" fill="white"/>
<path d="M460.957 401.556L465.612 402.874C468.401 403.648 471.352 403.563 474.082 402.619L475.948 401.973C477.601 401.403 479.288 400.961 481.01 400.664L482.29 400.468L482.493 401.267C482.841 402.662 482.765 404.124 482.281 405.467L481.238 408.358C479.407 413.424 474.727 416.91 469.36 417.208C466.019 417.395 462.721 416.315 460.126 414.19L456.243 411.01L460.957 401.556Z" fill="#81D3CF"/>
<path opacity="0.3" d="M465.51 400.341L465.078 402.823C464.382 406.802 460.838 409.25 457.226 409.038L462.051 399.372L465.51 400.341Z" fill="#422C4F"/>
<path d="M458.778 405.442L462.305 415.524C462.424 415.856 462.153 416.196 461.797 416.153C459.16 415.839 456.828 414.292 455.497 411.988L451.02 404.209L458.778 405.442Z" fill="#454F6B"/>
<path d="M462.221 390.037L460.279 401.08C459.948 402.968 457.99 404.09 456.201 403.427L437.047 396.319V382.573C437.055 368.452 448.468 357 462.551 357C476.38 357 487.623 368.035 488.03 381.799H472.005C467.189 381.799 463.06 385.276 462.221 390.037Z" fill="#DF4268"/>
<path d="M446.713 377.761C447.951 377.761 449.155 377.089 449.765 375.907C452.266 371.104 457.167 368.12 462.551 368.12C464.45 368.12 465.994 366.573 465.994 364.668C465.994 362.764 464.45 361.217 462.551 361.217C454.598 361.217 447.357 365.621 443.669 372.711C442.787 374.403 443.44 376.485 445.127 377.37C445.636 377.633 446.178 377.761 446.713 377.761Z" fill="white"/>
<path d="M473.082 371.529C474.142 371.529 475.193 371.036 475.863 370.118C476.982 368.579 476.651 366.42 475.117 365.297L474.956 365.178C473.413 364.065 471.259 364.422 470.157 365.978C469.046 367.525 469.402 369.684 470.945 370.789L471.055 370.866C471.666 371.317 472.378 371.529 473.082 371.529Z" fill="white"/>
<path d="M456.2 403.427C457.989 404.09 459.948 402.968 460.279 401.08L462.22 390.037C463.06 385.276 467.189 381.799 472.014 381.799H488.039C488.047 382.054 488.056 382.309 488.056 382.573V384.936H472.861C469.148 384.936 465.977 387.605 465.332 391.27L463.399 402.228C462.712 406.139 458.549 408.375 454.912 406.776L438.87 399.72C437.759 399.227 437.038 398.13 437.038 396.915V396.311L456.2 403.427Z" fill="#A34262"/>
<path d="M457.769 492.795L453.08 472.229L459.812 435.248C460.618 430.844 458.524 426.423 454.615 424.255L439.141 415.686C437.114 414.564 434.605 414.819 432.849 416.332C420.097 427.291 412.119 442.806 410.618 459.579L407.701 492.072C407.379 495.626 410.177 498.695 413.738 498.695H453.089C456.175 498.695 458.464 495.813 457.769 492.795Z" fill="#FF9C1A"/>
<path d="M434.435 431.057L434.308 431.558C432.68 437.841 433.875 444.523 437.572 449.853L453.088 472.229L456.242 454.895L434.435 431.057Z" fill="#F48116"/>
<path d="M456.065 420.081L460.321 422.283L456.065 426.891L454.615 424.255L456.065 420.081Z" fill="#D4E9FF"/>
<path d="M460.321 422.283L461.287 430.147L456.904 425.981L460.321 422.283Z" fill="white"/>
<path d="M436.631 414.989L441.142 411.002L457.235 419.826L455.039 429.152L436.631 414.989Z" fill="white"/>
<path d="M527.5 480.459H539.506C541.744 480.459 543.55 482.278 543.55 484.514V492.038C543.55 494.282 541.736 496.093 539.506 496.093H529.789V493.101C526.864 493.101 524.049 491.936 521.98 489.862L520.521 488.399L527.5 480.459Z" fill="#C15F32"/>
<path d="M527.499 480.459L520.521 488.399L490.548 481.411L494.695 470.291L527.499 480.459Z" fill="#C15F32"/>
<path d="M494.695 470.291L496.153 470.75L496.628 482.831L490.548 481.411L494.695 470.291Z" fill="#9A4C28"/>
<path d="M437.301 427.291C441.252 424.179 446.95 424.741 450.231 428.549L481.323 464.715L486.945 466.61L481.722 480.612L478.771 479.975C474.108 478.963 469.852 476.566 466.562 473.097L436.292 441.208C432.468 437.178 432.934 430.726 437.301 427.291Z" fill="#FF9C1A"/>
<path d="M481.553 481.063L481.722 480.62L486.945 466.618L487.462 465.233C487.759 464.442 488.641 464.034 489.43 464.332L494.568 466.261C495.356 466.559 495.763 467.443 495.466 468.234L495.051 469.356L490.167 482.448L489.565 484.064C489.268 484.854 488.387 485.262 487.598 484.965L482.46 483.035C481.663 482.737 481.256 481.853 481.553 481.063Z" fill="white"/>
<path d="M448.264 430.053C445.373 426.687 440.54 425.786 436.64 427.869C436.852 427.665 437.072 427.469 437.309 427.282C441.261 424.17 446.958 424.732 450.24 428.54L481.332 464.706L486.953 466.601L486.114 468.846L479.806 466.712L448.264 430.053Z" fill="#F48114"/>
<path d="M525.846 493.084C524.93 491.409 522.844 490.797 521.174 491.715L521.166 491.723C521.233 491.681 521.293 491.621 521.369 491.587L529.068 487.362C530.738 486.444 532.824 487.056 533.74 488.731C534.655 490.406 534.045 492.497 532.375 493.415L524.693 497.641C526.185 496.663 526.719 494.682 525.846 493.084Z" fill="#422C4F"/>
<path d="M523.023 498.066C521.81 498.066 520.623 497.419 520.004 496.272C519.131 494.673 519.665 492.701 521.166 491.723L521.174 491.715C522.845 490.797 524.93 491.409 525.846 493.084C526.719 494.682 526.185 496.654 524.684 497.632L524.676 497.641C524.15 497.93 523.582 498.066 523.023 498.066Z" fill="#495375"/>
<path d="M343.897 371.529H469.47V369.047H343.897V371.529Z" fill="url(#paint0_linear_1_60)"/>
<path d="M329.059 376.468H454.631V373.986H329.059V376.468Z" fill="url(#paint1_linear_1_60)"/>
<path d="M431.569 564.318H557.15V561.844H431.569V564.318Z" fill="url(#paint2_linear_1_60)"/>
<path d="M416.731 569.257H542.312V566.783H416.731V569.257Z" fill="url(#paint3_linear_1_60)"/>
<path d="M327.423 430.394H452.995V427.92H327.423V430.394Z" fill="url(#paint4_linear_1_60)"/>
<path d="M273.701 425.497H446.034V423.014H273.701V425.497Z" fill="url(#paint5_linear_1_60)"/>
<path d="M292.948 420.081H465.281V417.599H292.948V420.081Z" fill="url(#paint6_linear_1_60)"/>
<path d="M415.391 488.952H540.972V486.469H415.391V488.952Z" fill="url(#paint7_linear_1_60)"/>
<path d="M361.677 484.047H534.011V481.573H361.677V484.047Z" fill="url(#paint8_linear_1_60)"/>
<path d="M380.924 478.64H553.258V476.157H380.924V478.64Z" fill="url(#paint9_linear_1_60)"/>
<path d="M217.214 563.306H342.795V560.824H217.214V563.306Z" fill="url(#paint10_linear_1_60)"/>
<path d="M200.002 558.401H372.335V555.927H200.002V558.401Z" fill="url(#paint11_linear_1_60)"/>
<path d="M219.249 552.985H391.582V550.511H219.249V552.985Z" fill="url(#paint12_linear_1_60)"/>
<g clip-path="url(#clip0_1_60)">
<path d="M162.002 156.82H221.182C221.182 156.82 225.472 140.1 210.462 147.39C208.742 137.53 203.742 134.28 191.882 145.55C189.442 133.66 168.862 142.24 162.002 156.82Z" fill="#68BDFC"/>
<path d="M456.502 96.01H485.482C485.482 96.01 487.582 87.82 480.232 91.39C479.392 86.56 476.942 84.97 471.132 90.49C469.942 84.67 459.862 88.87 456.502 96.01Z" fill="#68BDFC"/>
<path d="M653.952 125.16H716.352C716.352 125.16 720.872 107.53 705.052 115.21C703.242 104.81 697.962 101.38 685.452 113.27C682.892 100.75 661.192 109.79 653.952 125.16Z" fill="#68BDFC"/>
</g>
<path d="M744.002 381L573.502 472.5V492.5L738.002 614L744.002 381Z" fill="url(#paint13_linear_1_60)"/>
<defs>
<linearGradient id="paint0_linear_1_60" x1="469.474" y1="370.291" x2="343.894" y2="370.291" gradientUnits="userSpaceOnUse">
<stop stop-color="#7FCBD0" stop-opacity="0"/>
<stop offset="0.5443" stop-color="#7FCBD0"/>
<stop offset="0.9884" stop-color="#7FCBD0" stop-opacity="0"/>
</linearGradient>
<linearGradient id="paint1_linear_1_60" x1="454.635" y1="375.23" x2="329.055" y2="375.23" gradientUnits="userSpaceOnUse">
<stop stop-color="#7FCBD0" stop-opacity="0"/>
<stop offset="0.5443" stop-color="#7FCBD0"/>
<stop offset="0.9884" stop-color="#7FCBD0" stop-opacity="0"/>
</linearGradient>
<linearGradient id="paint2_linear_1_60" x1="557.149" y1="563.082" x2="431.569" y2="563.082" gradientUnits="userSpaceOnUse">
<stop stop-color="#7FCBD0" stop-opacity="0"/>
<stop offset="0.5443" stop-color="#7FCBD0"/>
<stop offset="0.9884" stop-color="#7FCBD0" stop-opacity="0"/>
</linearGradient>
<linearGradient id="paint3_linear_1_60" x1="542.311" y1="568.021" x2="416.731" y2="568.021" gradientUnits="userSpaceOnUse">
<stop stop-color="#7FCBD0" stop-opacity="0"/>
<stop offset="0.5443" stop-color="#7FCBD0"/>
<stop offset="0.9884" stop-color="#7FCBD0" stop-opacity="0"/>
</linearGradient>
<linearGradient id="paint4_linear_1_60" x1="452.999" y1="429.155" x2="327.419" y2="429.155" gradientUnits="userSpaceOnUse">
<stop stop-color="#7FCBD0" stop-opacity="0"/>
<stop offset="0.5443" stop-color="#7FCBD0"/>
<stop offset="0.9884" stop-color="#7FCBD0" stop-opacity="0"/>
</linearGradient>
<linearGradient id="paint5_linear_1_60" x1="446.038" y1="424.255" x2="273.703" y2="424.255" gradientUnits="userSpaceOnUse">
<stop stop-color="#7FCBD0" stop-opacity="0"/>
<stop offset="0.5443" stop-color="#7FCBD0"/>
<stop offset="0.9884" stop-color="#7FCBD0" stop-opacity="0"/>
</linearGradient>
<linearGradient id="paint6_linear_1_60" x1="465.283" y1="418.84" x2="292.948" y2="418.84" gradientUnits="userSpaceOnUse">
<stop stop-color="#7FCBD0" stop-opacity="0"/>
<stop offset="0.5443" stop-color="#7FCBD0"/>
<stop offset="0.9884" stop-color="#7FCBD0" stop-opacity="0"/>
</linearGradient>
<linearGradient id="paint7_linear_1_60" x1="540.974" y1="487.711" x2="415.394" y2="487.711" gradientUnits="userSpaceOnUse">
<stop stop-color="#7FCBD0" stop-opacity="0"/>
<stop offset="0.5443" stop-color="#7FCBD0"/>
<stop offset="0.9884" stop-color="#7FCBD0" stop-opacity="0"/>
</linearGradient>
<linearGradient id="paint8_linear_1_60" x1="534.013" y1="482.81" x2="361.678" y2="482.81" gradientUnits="userSpaceOnUse">
<stop stop-color="#7FCBD0" stop-opacity="0"/>
<stop offset="0.5443" stop-color="#7FCBD0"/>
<stop offset="0.9884" stop-color="#7FCBD0" stop-opacity="0"/>
</linearGradient>
<linearGradient id="paint9_linear_1_60" x1="553.257" y1="477.395" x2="380.923" y2="477.395" gradientUnits="userSpaceOnUse">
<stop stop-color="#7FCBD0" stop-opacity="0"/>
<stop offset="0.5443" stop-color="#7FCBD0"/>
<stop offset="0.9884" stop-color="#7FCBD0" stop-opacity="0"/>
</linearGradient>
<linearGradient id="paint10_linear_1_60" x1="342.795" y1="562.065" x2="217.215" y2="562.065" gradientUnits="userSpaceOnUse">
<stop stop-color="#7FCBD0" stop-opacity="0"/>
<stop offset="0.5443" stop-color="#7FCBD0"/>
<stop offset="0.9884" stop-color="#7FCBD0" stop-opacity="0"/>
</linearGradient>
<linearGradient id="paint11_linear_1_60" x1="372.337" y1="557.164" x2="200.002" y2="557.164" gradientUnits="userSpaceOnUse">
<stop stop-color="#7FCBD0" stop-opacity="0"/>
<stop offset="0.5443" stop-color="#7FCBD0"/>
<stop offset="0.9884" stop-color="#7FCBD0" stop-opacity="0"/>
</linearGradient>
<linearGradient id="paint12_linear_1_60" x1="391.581" y1="551.749" x2="219.246" y2="551.749" gradientUnits="userSpaceOnUse">
<stop stop-color="#7FCBD0" stop-opacity="0"/>
<stop offset="0.5443" stop-color="#7FCBD0"/>
<stop offset="0.9884" stop-color="#7FCBD0" stop-opacity="0"/>
</linearGradient>
<linearGradient id="paint13_linear_1_60" x1="526.502" y1="480.5" x2="723.002" y2="473" gradientUnits="userSpaceOnUse">
<stop stop-color="white"/>
<stop offset="1" stop-color="white" stop-opacity="0"/>
</linearGradient>
<clipPath id="clip0_1_60">
<rect width="554.95" height="69.82" fill="white" transform="translate(162.002 87)"/>
</clipPath>
</defs>
</svg>
